<svg version="1.1" id="Layer_1" xmlns="http://www.w3.org/2000/svg" xmlns:xlink="http://www.w3.org/1999/xlink" x="0px" y="0px"
	 width="100%" viewBox="0 0 1360 768" enable-background="new 0 0 1360 768" xml:space="preserve">
<path fill="var(--color-primary)" opacity="1.000000" stroke="none" 
	d="
M815.255371,768.748535 
	C647.312439,769.000000 479.624878,769.000000 311.468658,769.000000 
	C309.567017,767.526611 309.799713,766.003723 310.927063,764.510254 
	C312.329712,762.652100 313.540588,760.648743 315.201141,758.984802 
	C327.778992,746.381592 339.258209,732.738342 351.904938,720.199829 
	C352.614441,719.496399 353.313721,718.779053 353.924652,717.986938 
	C356.751648,714.321777 356.417328,712.898560 351.945648,711.818970 
	C334.642914,707.641418 317.389862,703.259155 300.057251,699.205688 
	C296.975616,698.485107 293.992096,697.410156 290.889801,696.767944 
	C288.068207,696.183899 286.993500,697.538147 287.656281,700.057190 
	C289.265289,706.172607 290.826782,712.304443 292.665375,718.357422 
	C293.256714,720.304260 294.808563,721.205566 296.649414,721.785767 
	C298.875885,722.487610 301.158691,722.965820 303.402039,723.597961 
	C310.678650,725.648499 311.982208,729.685486 306.761658,734.969360 
	C298.923035,742.903381 291.842651,751.552795 283.692200,759.188293 
	C280.335541,762.332886 278.185547,766.788208 273.261414,768.754944 
	C251.312439,769.000000 229.624878,769.000000 207.468658,769.000000 
	C202.531021,765.276062 201.969193,759.691895 200.569214,754.666687 
	C196.192810,738.957458 190.833176,723.548340 186.520737,707.824402 
	C186.256714,706.861755 185.949173,705.912964 185.774078,704.926208 
	C184.850998,699.724060 186.574356,697.702698 191.785583,697.889954 
	C197.917465,698.110229 197.901672,698.057922 196.249146,691.914429 
	C194.994904,687.251587 193.371368,682.703247 192.136322,678.036011 
	C191.359772,675.101440 189.667297,673.121765 186.501968,672.364990 
	C175.822617,669.811829 165.208817,666.973022 154.368896,665.140625 
	C149.717056,664.354248 148.706100,665.325745 150.122192,669.773132 
	C157.084732,691.639709 163.766144,713.594238 170.362259,735.570862 
	C173.133530,744.804077 176.593933,753.828552 178.797562,763.230957 
	C179.207077,764.978271 180.007111,766.779968 178.252625,768.716980 
	C144.312439,769.000000 110.624878,769.000000 76.468658,769.000000 
	C74.250069,767.422546 74.276260,765.590942 75.117409,763.560669 
	C78.580544,755.201355 79.189751,746.613220 77.667572,737.695984 
	C75.864037,727.130493 68.748344,720.575684 57.842583,720.482300 
	C41.764767,720.344604 25.686399,719.968140 9.604789,720.362549 
	C6.866430,720.429810 3.882948,720.940674 1.305794,718.299255 
	C1.000000,688.312439 1.000000,658.624878 1.000000,628.468628 
	C6.482000,617.276733 16.168949,610.144958 23.914082,601.369324 
	C40.314453,582.786926 57.782097,565.180908 74.488228,546.869141 
	C85.364540,534.947449 96.552902,523.303833 107.650627,511.582397 
	C113.370743,505.540771 118.840546,499.272980 124.611313,493.272064 
	C129.445084,488.245514 128.915115,486.857025 122.319130,485.393158 
	C103.145477,481.137878 84.261932,475.713104 65.124603,471.317535 
	C59.293339,469.978119 58.319916,470.916290 60.007782,476.543610 
	C61.299828,480.851227 62.691685,485.129730 63.652149,489.525146 
	C64.489487,493.357086 66.667191,495.711487 70.596443,496.393066 
	C72.566116,496.734711 74.488724,497.310944 76.411003,497.848755 
	C83.495766,499.830933 84.419182,503.032318 79.461761,508.341858 
	C74.807182,513.327087 70.031815,518.197876 65.374619,523.182373 
	C54.244289,535.094788 43.253227,547.140442 31.980968,558.924133 
	C23.818628,567.456848 16.068844,576.385925 7.860116,584.879944 
	C6.228867,586.567871 4.621245,589.016479 1.268843,587.236206 
	C1.000000,552.979126 1.000000,518.958191 1.000000,484.468658 
	C2.518416,482.298126 4.294263,483.005402 6.089621,483.386597 
	C17.139729,485.732635 28.257940,487.742004 39.284687,490.212952 
	C45.356152,491.573517 46.248806,490.518158 44.388889,484.490448 
	C33.953773,450.671875 23.624784,416.820526 13.282536,382.973694 
	C9.885428,371.856049 5.931165,360.906342 3.128351,349.601196 
	C2.468221,346.938568 3.217062,344.008362 1.254436,341.289917 
	C1.000000,242.312439 1.000000,143.624878 1.000000,44.468658 
	C4.097051,42.463112 4.656543,44.857433 5.427658,46.877552 
	C9.947669,58.718834 13.295454,70.939522 17.017265,83.035164 
	C26.273561,113.117516 35.617203,143.173004 44.835022,173.267044 
	C51.806522,196.027374 58.855286,218.763504 65.922401,241.494080 
	C66.441177,243.162643 66.281876,245.509720 68.549614,245.911224 
	C70.646172,246.282425 71.712608,244.347656 72.899437,243.012512 
	C84.624443,229.822250 97.016670,217.251373 108.903175,204.212708 
	C125.837555,185.636871 143.098007,167.363571 160.326645,149.065079 
	C171.054993,137.670517 181.398972,125.915810 192.394440,114.775658 
	C198.714203,108.372742 204.259933,101.276344 210.531631,94.833839 
	C213.129379,92.165352 211.711380,90.697075 208.806152,90.044037 
	C200.515244,88.180412 192.348694,85.823326 184.082199,83.873978 
	C173.714203,81.429085 163.360764,78.938812 153.067596,76.189476 
	C150.248993,75.436623 146.804062,73.429451 144.503555,75.477470 
	C141.958740,77.742981 144.717468,81.046768 145.110840,83.899406 
	C145.223038,84.713028 145.721771,85.483192 145.809982,86.291199 
	C146.816956,95.514084 151.227295,100.889496 161.047577,102.221268 
	C167.480057,103.093590 168.343338,107.348717 163.635773,112.099655 
	C146.403366,129.490814 130.405563,148.035248 113.383354,165.626907 
	C103.780960,175.550537 94.833435,186.108139 85.011688,195.838760 
	C79.945808,200.857635 77.207146,200.256378 74.749878,193.428207 
	C70.573013,181.821640 67.781181,169.793335 64.079674,158.035172 
	C59.181183,142.474701 54.827934,126.741798 50.186916,111.100113 
	C47.534321,102.160065 44.717361,93.262688 42.057842,84.321289 
	C40.133118,77.850288 42.042793,75.576767 48.735771,76.158432 
	C53.223675,76.548454 53.862434,75.834503 52.733288,71.537163 
	C51.335945,66.219131 49.526138,61.021587 48.060856,55.722523 
	C47.231426,52.722946 45.387302,50.926300 42.222454,50.291492 
	C31.294756,48.099613 20.673933,44.533241 9.576063,43.061996 
	C6.624386,42.670689 3.614559,42.048302 1.263865,39.260220 
	C1.000000,27.545105 1.168530,16.086195 0.895896,4.637792 
	C0.815537,1.263356 1.962453,0.924127 4.835570,0.937939 
	C27.910841,1.048865 50.986877,1.000000 74.531342,1.000000 
	C78.045006,2.482873 78.936630,5.500387 79.716904,8.316160 
	C83.632927,22.447996 88.397644,36.321323 92.390388,50.427235 
	C92.935081,52.351601 93.452095,54.298599 93.662086,56.284069 
	C94.050934,59.960526 92.047508,62.023945 88.405243,61.687214 
	C86.922371,61.550117 85.463219,61.089153 83.974792,60.932426 
	C81.792000,60.702583 80.643570,61.842762 81.266327,63.909176 
	C83.379532,70.921143 85.329369,78.004997 88.427391,84.670433 
	C89.429016,86.825432 91.642761,87.411537 93.812706,87.876633 
	C103.745430,90.005592 113.624512,92.393883 123.645195,94.097191 
	C128.829239,94.978386 129.891006,93.973579 128.372803,88.893425 
	C123.223747,71.663933 118.083832,54.432724 112.536171,37.321278 
	C109.202965,27.040161 105.982864,16.707567 103.085213,6.286185 
	C102.643753,4.698483 102.117516,3.027185 103.748108,1.281429 
	C413.020905,1.000000 722.041809,1.000000 1031.531372,1.000000 
	C1033.959717,3.252818 1032.557983,4.944901 1031.092651,6.669032 
	C1023.216736,15.935590 1014.573120,24.493845 1006.329834,33.420647 
	C987.244995,54.087940 967.809021,74.433624 948.849548,95.214668 
	C940.096313,104.808899 930.932983,114.001511 922.150513,123.563889 
	C913.480835,133.003372 904.830505,142.465134 896.079773,151.832321 
	C892.950562,155.181900 893.622253,157.231644 898.390076,158.181122 
	C910.648926,160.622375 922.691101,163.981796 934.910461,166.576111 
	C942.897583,168.271835 950.710205,170.675888 958.691650,172.388870 
	C963.423889,173.404526 964.309143,172.608047 963.165039,167.999146 
	C961.881958,162.830521 959.963501,157.833023 958.827820,152.619080 
	C958.257812,150.001877 956.623718,148.725052 954.032532,148.240051 
	C950.759766,147.627426 947.496582,146.948959 944.232544,146.283539 
	C938.928467,145.202209 937.517395,141.333862 941.123840,137.242981 
	C945.304993,132.500214 949.629883,127.850967 954.039612,123.346817 
	C971.634216,105.375847 988.061462,86.320221 1005.619385,68.313477 
	C1010.944519,62.852150 1016.333191,57.365318 1021.167053,51.413704 
	C1022.715637,49.507057 1024.460815,48.062145 1027.140991,48.692905 
	C1029.623047,49.277016 1030.465332,51.304749 1031.095947,53.416817 
	C1037.338867,74.325783 1043.659180,95.211655 1049.901123,116.120903 
	C1054.426147,131.278870 1059.015381,146.420456 1063.607422,161.559860 
	C1063.897583,162.516479 1064.223633,163.463058 1064.471069,164.431717 
	C1065.862061,169.876160 1063.455444,172.386032 1057.920044,171.328339 
	C1056.034546,170.968063 1053.878906,169.655670 1052.344604,171.662994 
	C1051.044922,173.363159 1052.450928,175.158554 1053.022339,176.850647 
	C1054.673950,181.742523 1056.179199,186.681274 1057.751709,191.598206 
	C1058.929077,195.279297 1061.231201,197.580673 1065.113892,198.179550 
	C1075.002563,199.704727 1084.649536,202.388885 1094.457764,204.296295 
	C1100.162964,205.405792 1101.226807,204.218857 1099.416626,198.623611 
	C1092.857300,178.348648 1086.505615,157.995743 1080.411621,137.590652 
	C1069.930176,102.494034 1058.834351,67.589302 1048.287842,32.515266 
	C1045.842041,24.381548 1043.258545,16.283310 1040.683228,8.185946 
	C1040.003906,6.049959 1038.700439,3.809695 1040.750000,1.276722 
	C1146.240601,1.000000 1251.481079,1.020787 1356.721558,0.909585 
	C1360.237671,0.905869 1361.115967,1.521524 1361.106201,5.214469 
	C1360.954224,62.496899 1361.000000,119.779854 1361.000000,177.531342 
	C1356.829102,187.200363 1348.763428,193.211700 1342.236206,200.410049 
	C1327.370117,216.804489 1312.135742,232.869125 1297.090332,249.104919 
	C1290.652344,256.052277 1284.208618,262.999176 1277.715942,269.891449 
	C1267.101929,281.158722 1256.720703,292.642059 1246.031372,303.837738 
	C1242.596069,307.435730 1242.818115,308.392212 1247.563232,309.599792 
	C1267.899658,314.775269 1288.360840,319.437927 1308.747192,324.409332 
	C1313.419312,325.548645 1314.178833,324.743195 1313.193115,320.011566 
	C1312.207275,315.278503 1310.614502,310.697845 1309.523560,305.995331 
	C1308.650391,302.231537 1306.364624,300.328247 1302.682617,299.741394 
	C1299.893188,299.296814 1297.055176,299.176117 1294.330933,298.280121 
	C1289.266724,296.614502 1288.098145,292.856842 1291.620239,288.765472 
	C1295.637817,284.098663 1300.011353,279.741211 1304.226562,275.261597 
	C1320.652954,257.804993 1336.685181,239.976974 1353.433594,222.826065 
	C1355.252197,220.963623 1356.864502,217.911316 1360.732910,219.764099 
	C1361.000000,223.361282 1361.000000,226.722580 1361.000000,230.541931 
	C1357.391113,236.736115 1352.844116,241.707260 1348.224121,246.614044 
	C1344.457886,250.614075 1344.722290,250.821808 1350.022705,252.873672 
	C1353.561157,254.243469 1358.096680,253.569931 1360.756348,257.750275 
	C1361.000000,274.687561 1361.000000,291.375122 1361.000000,308.531342 
	C1358.486694,311.937347 1355.350098,310.584747 1352.630005,309.823517 
	C1345.883057,307.935303 1338.915039,307.122284 1332.171753,305.207916 
	C1326.997437,303.738922 1325.717163,305.313751 1327.348389,310.523346 
	C1333.318359,329.590210 1338.934570,348.767517 1344.925049,367.824280 
	C1349.163696,381.308258 1352.931396,394.945007 1357.703125,408.265839 
	C1359.329712,412.806702 1358.975342,417.814270 1360.757812,422.707520 
	C1361.000000,536.904602 1360.981323,650.809204 1361.088623,764.713745 
	C1361.091919,768.208984 1360.507324,769.117859 1356.793091,769.107849 
	C1299.508057,768.953247 1242.222656,769.000000 1184.468628,769.000000 
	C1182.039307,766.748352 1183.361572,764.984863 1184.918945,763.345398 
	C1198.555664,748.988892 1211.612061,734.093994 1225.334595,719.817322 
	C1242.749634,701.699219 1259.430786,682.894470 1277.000244,664.913330 
	C1284.895020,656.833496 1292.171509,648.136658 1300.072388,640.034241 
	C1304.292603,635.706360 1303.751099,634.006042 1297.879150,632.566162 
	C1279.279907,628.005371 1260.654907,623.548767 1242.098633,618.813843 
	C1240.645386,618.442993 1239.193115,618.053589 1237.712158,617.828613 
	C1235.352295,617.469971 1234.022583,618.494263 1234.571411,620.902466 
	C1235.976807,627.067261 1237.823242,633.122620 1239.766113,639.132874 
	C1240.680786,641.962769 1243.452637,642.849304 1246.119019,643.391052 
	C1248.742554,643.924072 1251.328735,644.549011 1253.774292,645.633240 
	C1257.406128,647.243347 1258.046021,649.227844 1256.219727,652.772705 
	C1255.678101,653.823914 1254.994141,654.758728 1254.168579,655.587158 
	C1243.003540,666.790405 1232.609497,678.716125 1221.735474,690.194092 
	C1206.399414,706.382080 1191.436401,722.921692 1176.013306,739.031616 
	C1171.453613,743.794250 1168.202148,743.312256 1165.973511,736.952454 
	C1160.628906,721.700500 1156.799072,705.985107 1152.000244,690.557922 
	C1145.824585,670.704285 1139.947266,650.747253 1134.149170,630.773193 
	C1133.685181,629.174500 1133.088623,627.613647 1132.791382,625.968018 
	C1131.815796,620.565796 1133.730957,618.542236 1139.301025,619.088440 
	C1144.523682,619.600647 1145.023071,619.069580 1143.616333,614.175354 
	C1142.144287,609.054565 1140.773926,603.904663 1139.154419,598.825378 
	C1138.151001,595.678040 1136.142334,593.804138 1132.895264,593.062439 
	C1122.018921,590.577881 1111.112061,588.232788 1100.198853,585.921875 
	C1096.585327,585.156616 1095.721436,586.265442 1096.851807,590.094238 
	C1099.728271,599.837036 1102.914673,609.485168 1105.843262,619.213257 
	C1114.334473,647.419556 1123.311035,675.476013 1131.819336,703.678711 
	C1137.728638,723.267395 1144.027588,742.740967 1149.793945,762.376038 
	C1150.393677,764.417908 1151.441650,766.516846 1149.252930,768.727173 
	C1074.979126,769.000000 1000.958191,769.000000 926.468628,769.000000 
	C922.369690,766.784485 921.632080,762.921143 920.597473,759.292053 
	C913.939697,735.938293 906.393066,712.859314 899.111511,689.698914 
	C897.247192,683.769043 896.158447,683.444946 892.012390,687.911133 
	C876.863953,704.229370 861.752197,720.588196 846.477478,736.781189 
	C836.348938,747.518555 827.100342,759.170471 815.255371,768.748535 
z"/>
<path fill="var(--color-secondary)" opacity="1.000000" stroke="none" 
	d="
M1040.550049,0.999996 
	C1047.656250,22.468485 1054.349243,43.925659 1060.958862,65.408508 
	C1068.195801,88.930443 1075.677612,112.374969 1082.395996,136.059143 
	C1086.162964,149.339081 1090.829224,162.362061 1094.977539,175.536285 
	C1097.774292,184.418091 1100.479004,193.332092 1103.022095,202.289276 
	C1104.479614,207.423004 1103.419800,208.568268 1098.391113,207.559464 
	C1086.642700,205.202682 1074.935913,202.636551 1063.179810,200.320511 
	C1059.535400,199.602554 1057.216797,197.879776 1056.084595,194.263275 
	C1053.749390,186.804688 1051.200317,179.413300 1048.777588,171.981766 
	C1047.498169,168.057358 1048.796997,166.549591 1052.890625,167.705963 
	C1054.007324,168.021408 1055.171021,168.217148 1056.326660,168.337891 
	C1058.349854,168.549271 1060.620361,170.895355 1062.298706,168.704941 
	C1063.723511,166.845306 1061.936523,164.576797 1061.330933,162.557541 
	C1050.570312,126.684158 1039.781616,90.819153 1028.977173,54.958942 
	C1028.473145,53.286270 1028.608154,50.946590 1026.345215,50.582760 
	C1024.412109,50.271961 1023.746033,52.301060 1022.636536,53.490864 
	C1011.179138,65.777733 999.690125,78.035065 988.204651,90.295738 
	C973.196655,106.316833 958.182617,122.332268 943.176270,138.354889 
	C942.150818,139.449783 940.947571,140.566086 941.436951,142.253311 
	C941.979553,144.124390 943.725769,143.939240 945.176392,144.023224 
	C955.184082,144.602585 963.168701,147.111343 963.340942,159.602386 
	C963.398438,163.770996 965.495544,167.934631 966.800232,172.056274 
	C968.071716,176.073196 967.000549,177.060791 962.849365,176.026260 
	C944.111633,171.356613 925.320801,166.899948 906.546021,162.379181 
	C902.184448,161.328934 897.746399,160.541809 893.460327,159.246994 
	C888.780518,157.833298 888.493835,156.386581 891.834290,152.714584 
	C899.217957,144.597977 906.580566,136.459900 914.091187,128.461502 
	C926.388672,115.365616 938.855835,102.428978 951.145020,89.325417 
	C969.915344,69.311340 988.612976,49.229015 1007.304443,29.141172 
	C1014.665222,21.230436 1021.940735,13.240103 1029.215820,5.250160 
	C1030.206543,4.161989 1030.967285,2.864429 1031.917236,1.331913 
	C1034.700073,1.000000 1037.400024,1.000000 1040.550049,0.999996 
z"/>
<path fill="var(--color-secondary)" opacity="1.000000" stroke="none" 
	d="
M1.000000,39.416664 
	C16.218409,40.966061 30.919176,45.371643 45.883995,48.532906 
	C47.876690,48.953850 48.991196,50.323833 49.563915,52.223858 
	C51.871410,59.879131 54.247101,67.514328 56.489029,75.188667 
	C57.524910,78.734573 56.355431,80.099091 52.436939,79.421326 
	C42.841667,77.761642 42.767361,77.900642 45.517658,87.107750 
	C54.334190,116.622681 63.280743,146.099197 71.966011,175.652588 
	C73.796646,181.881683 75.531410,188.134094 77.590683,194.294449 
	C78.584351,197.267029 79.590340,198.210556 82.242950,195.412857 
	C100.446327,176.213852 118.534332,156.911514 136.332840,137.333771 
	C144.616745,128.221741 153.342728,119.511475 161.874069,110.624611 
	C165.828171,106.505753 165.646912,105.751602 160.294037,104.312363 
	C159.006927,103.966301 157.715225,103.416496 156.413956,103.380333 
	C148.888824,103.171158 145.932922,98.621490 144.660873,91.878731 
	C143.706192,86.818161 141.990448,81.905785 140.763840,76.890663 
	C139.458328,71.552956 140.302185,70.638550 145.415894,71.887329 
	C168.377487,77.494560 191.313019,83.209167 214.289764,88.753120 
	C217.447403,89.515007 217.971558,90.409805 215.708252,92.850075 
	C207.686447,101.499062 199.835556,110.308464 191.729706,118.877174 
	C176.639893,134.828644 161.883926,151.087997 146.710190,166.966843 
	C126.716904,187.889191 107.371498,209.430237 87.719849,230.679688 
	C82.069016,236.789963 76.388275,242.875519 70.595703,248.850708 
	C67.071327,252.486221 66.489090,252.303909 64.948105,247.268570 
	C59.396049,229.126617 53.961689,210.948563 48.392982,192.811768 
	C41.159359,169.252441 33.831001,145.722229 26.559858,122.174393 
	C19.878736,100.537376 13.255205,78.882469 6.520739,57.262100 
	C5.150183,52.862061 3.936027,48.376087 1.313389,44.159584 
	C1.000000,42.611111 1.000000,41.222221 1.000000,39.416664 
z"/>
<path fill="var(--color-secondary)" opacity="1.000000" stroke="none" 
	d="
M1149.468628,769.000000 
	C1145.161499,755.738281 1141.798218,742.315552 1137.373901,729.252258 
	C1130.589355,709.219666 1125.005737,688.828735 1118.526733,668.707153 
	C1110.161499,642.727539 1102.366943,616.564148 1094.325684,590.480225 
	C1094.178467,590.002502 1093.974487,589.538147 1093.870728,589.051819 
	C1093.431763,586.992371 1091.704834,584.683777 1093.204834,582.898071 
	C1094.848999,580.940796 1097.285156,582.673584 1099.299316,583.104614 
	C1110.536743,585.509155 1121.722900,588.160767 1132.984619,590.440308 
	C1137.573730,591.369141 1140.404053,593.492737 1141.615112,598.161255 
	C1143.328857,604.767822 1145.534302,611.245117 1147.373291,617.821350 
	C1148.581665,622.142883 1147.200806,623.755188 1142.891479,622.353821 
	C1134.566528,619.646545 1133.446411,620.198547 1136.381592,629.881348 
	C1146.087402,661.899780 1155.488403,694.010559 1165.031006,726.078613 
	C1166.171021,729.910095 1167.436401,733.705200 1168.691406,737.501343 
	C1169.664673,740.445557 1170.750732,741.391418 1173.402222,738.520630 
	C1185.596069,725.319092 1198.003418,712.315125 1210.286255,699.195618 
	C1224.272339,684.256958 1238.227905,669.289490 1252.154419,654.295044 
	C1256.609985,649.497681 1256.333252,648.684570 1249.936279,646.838257 
	C1248.500366,646.423889 1247.031738,646.069641 1245.553711,645.863647 
	C1240.028931,645.093628 1237.208130,641.929260 1236.074829,636.481812 
	C1234.891113,630.791382 1232.914307,625.270630 1231.475708,619.626892 
	C1230.292603,614.985657 1231.575073,613.694824 1236.210449,614.841492 
	C1258.848267,620.441772 1281.447510,626.200684 1304.114868,631.678101 
	C1308.352417,632.702087 1308.008911,634.396973 1305.933960,637.070557 
	C1301.434448,642.868225 1295.945435,647.763550 1291.039917,653.199585 
	C1278.555664,667.033813 1265.421631,680.279358 1252.667358,693.872742 
	C1242.081665,705.154846 1231.703735,716.631470 1221.165649,727.958618 
	C1209.392700,740.613098 1197.536011,753.189819 1185.745239,765.827759 
	C1185.083374,766.537231 1184.687622,767.495056 1184.083984,768.668579 
	C1172.645752,769.000000 1161.291504,769.000000 1149.468628,769.000000 
z"/>
<path fill="var(--color-secondary)" opacity="1.000000" stroke="none" 
	d="
M1.000000,587.468628 
	C3.326880,586.604309 4.725627,584.859436 6.180762,583.290161 
	C22.231297,565.980042 38.206734,548.600159 54.297031,531.327148 
	C62.120598,522.928528 70.146141,514.718201 78.074036,506.416626 
	C81.778824,502.537323 81.645088,501.003906 76.488152,500.525146 
	C65.814056,499.534180 60.600891,494.085571 59.530636,483.603424 
	C59.114685,479.529602 57.184628,475.631866 56.267963,471.580688 
	C55.568016,468.487335 56.654751,466.674438 60.308372,467.588440 
	C75.967110,471.505615 91.633507,475.392334 107.304153,479.261597 
	C114.571983,481.056091 121.843895,482.837402 129.137436,484.523071 
	C132.993896,485.414368 133.402603,486.940674 130.701172,489.841553 
	C118.578285,502.859406 106.558952,515.973633 94.470428,529.023560 
	C73.567657,551.588806 52.707085,574.193848 31.695911,596.657837 
	C21.840904,607.194275 11.676467,617.441223 1.326122,627.909668 
	C1.000000,614.645752 1.000000,601.291565 1.000000,587.468628 
z"/>
<path fill="var(--color-secondary)" opacity="1.000000" stroke="none" 
	d="
M1361.000000,219.531342 
	C1355.985107,222.020279 1352.790894,226.299713 1349.585938,230.175980 
	C1342.142822,239.178665 1333.319702,246.823166 1325.664185,255.625732 
	C1315.521729,267.287994 1304.563477,278.239532 1294.002441,289.540100 
	C1290.256714,293.548126 1290.770508,294.952850 1296.257935,296.294678 
	C1296.581543,296.373840 1296.908691,296.552002 1297.224609,296.531860 
	C1308.499268,295.811951 1312.560913,302.532654 1313.910400,312.377533 
	C1314.450684,316.319092 1315.313721,320.290955 1316.643311,324.031006 
	C1318.317871,328.741760 1316.167969,328.700684 1312.732788,327.885803 
	C1302.041504,325.349762 1291.327148,322.910736 1280.645264,320.336395 
	C1268.020874,317.293884 1255.423096,314.141754 1242.808105,311.059967 
	C1241.370361,310.708740 1239.566284,310.826111 1238.948364,309.228668 
	C1238.271362,307.478210 1239.997070,306.599060 1240.970825,305.558807 
	C1256.200562,289.289764 1271.472534,273.060333 1286.695801,256.785156 
	C1305.434937,236.751068 1324.271729,216.805298 1342.776855,196.556824 
	C1348.500854,190.293564 1354.317627,184.155197 1360.689697,178.116714 
	C1361.000000,191.687561 1361.000000,205.375122 1361.000000,219.531342 
z"/>
<path fill="var(--color-secondary)" opacity="1.000000" stroke="none" 
	d="
M815.468628,769.000000 
	C814.930603,766.144897 817.017822,764.593018 818.714722,762.781982 
	C827.912903,752.964661 837.082947,743.120972 846.280701,733.303284 
	C861.733765,716.808472 877.156128,700.284424 892.687195,683.863342 
	C897.586121,678.683777 898.357910,679.026611 900.468018,685.742371 
	C909.093689,713.194702 917.916870,740.585754 925.920837,768.626709 
	C916.645752,769.000000 907.291565,769.000000 897.468628,769.000000 
	C893.633362,766.778748 893.012329,762.999878 891.952148,759.599487 
	C890.176697,753.904907 888.601624,748.145203 886.838684,742.442505 
	C885.313904,737.510376 884.713196,737.395325 880.785156,741.046631 
	C872.879517,748.395264 866.265564,756.971130 858.465271,764.419861 
	C856.901917,765.912720 855.369629,767.405823 853.251160,768.756592 
	C840.645752,769.000000 828.291565,769.000000 815.468628,769.000000 
z"/>
<path fill="var(--color-secondary)" opacity="1.000000" stroke="none" 
	d="
M1.000000,341.468658 
	C2.632852,341.368805 3.444458,342.405731 3.931256,344.014435 
	C12.021693,370.750336 20.113951,397.485901 28.305838,424.190857 
	C34.648766,444.868317 41.133690,465.502197 47.543034,486.159332 
	C48.035152,487.745392 48.573277,489.338959 48.834286,490.969971 
	C49.249573,493.565094 48.226730,494.683899 45.437576,494.094574 
	C32.094315,491.275146 18.730171,488.554504 5.387991,485.730042 
	C4.113364,485.460236 2.939497,484.714386 1.359427,484.094757 
	C1.000000,436.645782 1.000000,389.291534 1.000000,341.468658 
z"/>
<path fill="var(--color-secondary)" opacity="1.000000" stroke="none" 
	d="
M178.468658,769.000000 
	C169.927261,742.610596 161.866318,716.217590 153.774826,689.833923 
	C151.241531,681.573669 148.717163,673.308472 146.004898,665.106323 
	C144.857208,661.635620 146.164841,660.670715 149.270828,661.358398 
	C162.750809,664.342957 176.209442,667.423767 189.679886,670.451660 
	C192.128662,671.002075 193.167130,672.753235 193.822571,674.952087 
	C196.008713,682.285706 198.323425,689.582458 200.406021,696.945007 
	C201.605515,701.185547 200.180496,702.415283 195.759201,701.397339 
	C193.253021,700.820251 190.271484,698.615479 188.290482,700.914795 
	C186.464630,703.034119 188.584656,705.961243 189.324158,708.429993 
	C195.050278,727.546387 200.860123,746.637695 206.620880,765.743774 
	C206.857605,766.528870 206.863800,767.383606 206.988708,768.602905 
	C197.645767,769.000000 188.291550,769.000000 178.468658,769.000000 
z"/>
<path fill="var(--color-secondary)" opacity="1.000000" stroke="none" 
	d="
M1.000000,718.468506 
	C10.132272,717.665771 19.324188,717.402161 28.397606,717.482666 
	C39.337700,717.579651 50.344315,717.453613 61.289772,718.130737 
	C70.421082,718.695496 78.558792,727.201050 80.065979,736.170349 
	C81.944359,747.348572 80.748184,757.973938 76.030937,768.624451 
	C52.631580,769.000000 29.261204,768.844177 5.896467,769.137573 
	C1.469232,769.193115 0.298103,767.961914 0.966367,763.945129 
	C1.181014,762.654968 1.000000,761.299011 1.000000,759.486572 
	C2.301820,757.258545 4.147805,756.849243 6.200706,756.570312 
	C10.907120,755.930908 14.181693,752.554565 14.215534,748.604797 
	C14.250072,744.573608 10.980831,741.331177 6.160942,740.587463 
	C4.578469,740.343262 2.781006,740.986694 1.247030,739.242859 
	C1.000000,732.312378 1.000000,725.624695 1.000000,718.468506 
z"/>
<path fill="var(--color-secondary)" opacity="1.000000" stroke="none" 
	d="
M273.468658,769.000000 
	C274.516449,764.984802 277.717102,762.171082 280.481995,759.162537 
	C288.476654,750.463745 296.783325,742.051697 304.967010,733.526611 
	C309.216583,729.099731 308.879181,726.798462 302.905426,726.154236 
	C293.379150,725.126770 289.073700,720.102600 287.901581,711.027588 
	C287.330719,706.607483 285.546997,702.356689 284.546265,697.975830 
	C283.590088,693.789856 284.838287,692.518188 288.853607,693.529358 
	C302.088593,696.862305 315.283691,700.354065 328.522980,703.669434 
	C337.725677,705.974060 346.988373,708.038269 356.200012,710.308167 
	C361.468414,711.606506 361.774109,712.285950 358.295258,716.208618 
	C351.455353,723.921265 344.421967,731.462891 337.438934,739.047852 
	C329.328094,747.857849 321.173676,756.627869 313.074982,765.449036 
	C312.305359,766.287354 311.797485,767.365967 311.084045,768.666504 
	C298.645782,769.000000 286.291534,769.000000 273.468658,769.000000 
z"/>
<path fill="var(--color-secondary)" opacity="1.000000" stroke="none" 
	d="
M103.531342,0.999999 
	C113.242867,31.213415 122.498413,61.422966 131.718063,91.643463 
	C133.593201,97.789871 132.977905,98.455154 126.635666,97.180618 
	C114.889839,94.820175 103.171890,92.318748 91.411987,90.032143 
	C88.428032,89.451942 86.593506,87.875496 85.664162,85.160721 
	C82.967606,77.283554 80.313385,69.391548 77.703644,61.485191 
	C76.568802,58.047104 77.804619,56.675377 81.378311,57.616833 
	C81.539345,57.659264 81.699600,57.706299 81.862610,57.739437 
	C92.664864,59.935352 92.724243,59.917496 89.474419,49.051922 
	C84.753609,33.268192 79.937004,17.513115 75.080627,1.372910 
	C84.354225,1.000000 93.708458,1.000000 103.531342,0.999999 
z"/>
<path fill="var(--color-secondary)" opacity="1.000000" stroke="none" 
	d="
M1361.000000,422.531342 
	C1358.942139,422.279541 1358.592407,420.362122 1358.070435,418.646729 
	C1353.672852,404.195435 1349.367310,389.715973 1344.934937,375.275452 
	C1340.356812,360.359802 1335.630615,345.489563 1331.041138,330.577301 
	C1328.453613,322.169464 1326.197266,313.655121 1323.427734,305.309540 
	C1321.961060,300.889771 1323.774170,300.763763 1327.153442,301.529480 
	C1338.163086,304.024017 1349.184326,306.466156 1360.600586,308.964233 
	C1361.000000,346.687561 1361.000000,384.375122 1361.000000,422.531342 
z"/>
<path fill="var(--color-primary)" opacity="1.000000" stroke="none" 
	d="
M853.468628,769.000000 
	C853.351990,766.968201 854.328003,765.268250 855.742676,763.793213 
	C864.928223,754.215942 874.145691,744.668823 883.270569,735.034058 
	C885.678650,732.491516 886.972046,733.481140 887.755310,736.172302 
	C890.860657,746.840698 893.880737,757.533875 896.966187,768.608948 
	C882.645752,769.000000 868.291565,769.000000 853.468628,769.000000 
z"/>
<path fill="var(--color-secondary)" opacity="1.000000" stroke="none" 
	d="
M1361.000000,257.531342 
	C1355.222656,256.555695 1349.429443,255.170898 1343.678345,253.629013 
	C1342.060913,253.195389 1339.154175,252.423737 1341.577515,250.196335 
	C1348.152344,244.153091 1352.656860,236.087601 1360.668457,231.083344 
	C1361.000000,239.687561 1361.000000,248.375122 1361.000000,257.531342 
z"/>
<path fill="var(--color-primary)" opacity="1.000000" stroke="none" 
	d="
M1.000000,739.468384 
	C4.792352,737.741516 8.423493,737.731934 11.941311,740.002258 
	C15.877630,742.542725 17.481522,746.161926 16.680094,750.613403 
	C15.875129,755.084595 11.226057,758.821899 6.862115,758.980835 
	C5.209066,759.041016 3.552083,758.993225 1.448446,758.997314 
	C1.000000,752.645569 1.000000,746.291199 1.000000,739.468384 
z"/>
<path fill="var(--color-secondary)" opacity="1.000000" stroke="none" 
	d="
M624.817749,595.244385 
	C626.284119,601.889221 625.649170,602.628052 619.568848,601.375061 
	C607.828369,598.955933 596.112000,596.419434 584.371216,594.001770 
	C582.101501,593.534424 580.195496,592.715942 579.375549,590.410706 
	C576.474915,582.256165 573.572693,574.101440 570.771973,565.912292 
	C569.402344,561.907593 570.885620,560.805664 574.948975,561.704956 
	C585.552246,564.051697 585.714172,563.905762 582.579956,553.455383 
	C572.009827,518.211365 561.334839,482.998749 550.684082,447.778900 
	C550.308105,446.535522 550.148926,444.973328 548.618042,444.597626 
	C546.997986,444.199982 546.419922,445.716827 545.531555,446.665009 
	C533.816711,459.169647 522.074036,471.648163 510.355865,484.149658 
	C495.451569,500.050323 480.535431,515.940002 465.689331,531.894897 
	C462.340546,535.493774 462.913635,537.738831 467.794647,537.897095 
	C479.711334,538.283691 485.298889,544.354919 486.277985,555.823975 
	C486.542694,558.924622 487.993408,561.907043 488.674316,564.993469 
	C489.489136,568.686646 488.183502,570.462524 484.139771,569.542480 
	C475.374969,567.548279 466.565460,565.744629 457.823853,563.655640 
	C443.245697,560.171753 428.705841,556.527405 414.151031,552.945923 
	C410.027039,551.931091 409.743439,550.966492 412.730743,547.785645 
	C428.560608,530.930115 444.524567,514.198669 460.216522,497.215820 
	C479.749603,476.075928 499.195801,454.862457 519.191650,434.150421 
	C532.357666,420.512848 544.985046,406.352539 557.736084,392.319458 
	C560.058594,389.763428 561.404846,390.481628 562.392822,393.081116 
	C563.573486,396.187347 564.413025,399.422974 565.407288,402.600372 
	C574.255493,430.876495 583.463013,459.047119 591.809875,487.470459 
	C596.263306,502.635651 601.125244,517.672058 605.553284,532.844238 
	C611.614014,553.610718 618.302490,574.194031 624.817749,595.244385 
z"/>
<path fill="var(--color-secondary)" opacity="1.000000" stroke="none" 
	d="
M1186.812500,517.224609 
	C1196.359131,547.964539 1205.844238,578.304871 1215.238037,608.673401 
	C1218.136597,618.044312 1220.605469,627.551086 1223.634155,636.877686 
	C1224.955078,640.945007 1223.051758,641.357117 1220.104492,640.839661 
	C1215.023315,639.947693 1209.990601,638.779968 1204.939087,637.720093 
	C1197.449219,636.148621 1189.978516,634.477173 1182.463135,633.039551 
	C1179.347778,632.443604 1177.415283,631.002441 1176.435547,627.907410 
	C1174.023682,620.288208 1171.468506,612.713135 1168.873535,605.153748 
	C1167.514893,601.195984 1168.616943,599.778503 1172.764404,600.843933 
	C1174.530518,601.297791 1176.370605,601.455688 1178.163452,601.816040 
	C1183.010010,602.790100 1183.437012,602.289001 1181.953735,597.360779 
	C1170.914062,560.683533 1159.856812,524.011536 1148.880981,487.315186 
	C1147.849243,483.865662 1146.868530,482.615753 1143.728027,485.695312 
	C1129.939331,499.216370 1117.436401,513.927124 1104.281616,528.033203 
	C1098.267456,534.482300 1091.916504,540.593994 1086.089233,547.243896 
	C1078.528442,555.872131 1070.433960,564.039551 1062.424561,572.264282 
	C1059.793823,574.965637 1060.546997,576.205627 1063.767334,576.836060 
	C1067.849731,577.635254 1071.945435,578.395752 1076.063232,578.974243 
	C1078.680298,579.341858 1080.344238,580.484009 1081.017212,583.114014 
	C1082.792725,590.052429 1084.643433,596.971497 1086.460449,603.899414 
	C1087.429932,607.596558 1086.396851,609.527893 1082.246704,608.549011 
	C1058.588501,602.968872 1034.930664,597.387085 1011.282654,591.764038 
	C1008.023560,590.989075 1008.215820,589.288940 1010.295532,587.210571 
	C1013.944336,583.564026 1017.330017,579.672241 1020.813904,575.874329 
	C1032.621948,563.001648 1044.792603,550.462280 1056.753296,537.728455 
	C1076.684326,516.508972 1096.579346,495.255615 1116.452148,473.981567 
	C1129.395508,460.125519 1142.229004,446.166748 1155.206909,432.343384 
	C1158.902344,428.407227 1159.641113,428.721924 1161.181885,433.746124 
	C1169.676514,461.447784 1178.201416,489.140167 1186.812500,517.224609 
z"/>
<path fill="var(--color-secondary)" opacity="1.000000" stroke="none" 
	d="
M295.500885,162.631485 
	C272.330719,187.136765 249.379135,211.431900 226.720169,235.996948 
	C222.433945,240.643707 218.009216,245.155518 213.749466,249.821762 
	C210.427673,253.460495 210.887756,254.985733 215.664215,256.111176 
	C219.055664,256.910248 222.520935,257.401733 225.960022,257.991089 
	C229.164047,258.540161 230.717499,260.453949 231.442383,263.602234 
	C233.085236,270.737244 234.866898,277.847900 236.872742,284.888489 
	C237.817947,288.206116 236.757584,288.734314 233.837082,288.049927 
	C222.815247,285.466888 211.764908,283.003876 200.756561,280.365265 
	C188.127716,277.338287 175.534470,274.163025 162.918915,271.080170 
	C161.474854,270.727295 159.619720,270.860077 158.991898,269.329315 
	C158.185547,267.363220 160.171280,266.428436 161.248169,265.288086 
	C177.802719,247.757736 194.086380,229.975983 210.498352,212.315506 
	C220.899734,201.122879 231.341461,189.958023 241.751007,178.767090 
	C262.930359,155.997864 284.173126,133.287521 305.307434,110.476616 
	C307.610596,107.990738 309.013428,108.158356 310.505157,111.030777 
	C312.066925,114.037979 312.425262,117.392273 313.403259,120.566093 
	C323.208649,152.386841 333.064514,184.192078 342.829193,216.025284 
	C349.367065,237.339081 355.746521,258.701385 362.263489,280.021637 
	C365.906677,291.940216 369.587646,303.849304 373.463074,315.693481 
	C374.641479,319.295013 374.750244,320.991669 370.105286,319.983185 
	C357.093201,317.158173 344.035248,314.543518 330.987701,311.883484 
	C328.341919,311.344055 327.048401,309.496033 326.286926,307.201538 
	C323.562164,298.991211 320.975098,290.734772 318.203583,282.540558 
	C317.175598,279.501282 318.280731,278.894073 321.000702,279.502930 
	C323.599945,280.084808 326.234039,280.526886 328.808380,281.200226 
	C332.702087,282.218536 333.234863,280.542633 332.255402,277.278656 
	C328.528351,264.859222 324.893463,252.412048 321.145325,239.999069 
	C313.786926,215.629471 306.387726,191.272141 298.961304,166.923172 
	C298.424377,165.162689 298.673492,162.688889 295.500885,162.631485 
z"/>
<path fill="var(--color-secondary)" opacity="1.000000" stroke="none" 
	d="
M195.244736,525.219849 
	C199.310623,519.227722 204.968719,515.164185 209.244003,509.824707 
	C211.422607,507.103790 212.856247,509.353607 213.520630,511.229095 
	C215.184982,515.927368 216.518997,520.742249 217.999146,525.506104 
	C225.648926,550.127319 233.391159,574.720154 240.931763,599.374695 
	C249.111328,626.118347 257.068481,652.929871 265.195221,679.689758 
	C268.917755,691.947449 272.723907,704.181641 276.686279,716.363403 
	C277.877411,720.025330 276.982849,720.787964 273.401123,720.011963 
	C260.386932,717.192139 247.341400,714.516907 234.309433,711.778809 
	C232.004135,711.294373 230.483276,709.970459 229.729691,707.674500 
	C227.083466,699.612183 224.371231,691.571533 221.698471,683.517883 
	C220.479630,679.845154 221.965591,679.205872 225.414352,679.768005 
	C236.157043,681.519104 236.478638,681.329407 233.321350,670.608093 
	C226.598343,647.778870 219.529083,625.051575 212.594528,602.284668 
	C208.860260,590.024658 205.059875,577.784302 201.402603,565.501404 
	C200.410385,562.169006 199.429245,561.821716 196.883423,564.434387 
	C182.833740,578.853271 169.318649,593.762146 155.709305,608.590881 
	C142.889908,622.558960 129.648087,636.139160 116.619881,649.916321 
	C115.519363,651.080078 113.518280,651.996521 113.939545,653.830505 
	C114.378166,655.739929 116.549461,655.576355 118.113693,655.930542 
	C135.685257,659.909485 132.636383,655.923462 137.240265,674.789856 
	C138.029495,678.024048 138.953873,681.226807 139.877106,684.426392 
	C140.791214,687.594421 140.486984,689.157410 136.459473,688.154907 
	C118.845276,683.770264 101.183350,679.577271 83.535889,675.326599 
	C77.387070,673.845459 71.241272,672.348755 65.072113,670.956604 
	C61.695400,670.194519 60.583199,668.937683 63.422436,666.074219 
	C77.120758,652.258789 90.012085,637.681274 103.482399,623.642639 
	C120.859283,605.532715 137.445923,586.665588 154.423050,568.170532 
	C160.610580,561.429810 167.372025,555.256836 173.379303,548.307190 
	C180.226303,540.386169 187.763840,533.062073 195.244736,525.219849 
z"/>
<path fill="var(--color-secondary)" opacity="1.000000" stroke="none" 
	d="
M650.755981,9.744285 
	C658.081177,2.421236 658.496765,2.425098 661.566895,12.317242 
	C672.718689,48.248875 683.745300,84.219391 694.800049,120.181099 
	C703.456421,148.340927 712.117493,176.499435 720.677917,204.688461 
	C721.603699,207.736984 724.276917,211.329025 721.801697,214.032974 
	C719.479675,216.569611 715.767273,214.189484 712.785889,213.608795 
	C702.336731,211.573532 691.961548,209.161163 681.526855,207.046936 
	C678.434021,206.420273 676.598389,205.081253 675.627319,201.880890 
	C673.307495,194.235184 670.589417,186.710297 668.031494,179.136826 
	C666.800110,175.490906 667.430664,173.541779 671.826965,174.886826 
	C672.935974,175.226135 674.100342,175.389938 675.244385,175.607697 
	C677.138672,175.968246 679.179443,177.713547 680.910156,176.157928 
	C682.900574,174.368820 681.281738,172.008896 680.700378,170.081085 
	C673.153259,145.054413 665.451416,120.074425 657.885559,95.053360 
	C654.514893,83.906029 651.360046,72.693451 648.111877,61.509155 
	C647.654419,59.933968 647.584351,57.943550 645.597290,57.561543 
	C643.613403,57.180153 642.882935,59.061146 641.787231,60.278057 
	C637.110107,65.472733 632.428650,70.665649 627.644897,75.761757 
	C616.034241,88.130554 604.348938,100.429359 592.725342,112.786110 
	C582.695068,123.449066 572.670105,134.117630 562.723145,144.858078 
	C559.228638,148.631302 559.793640,150.855499 564.930115,151.095352 
	C575.447876,151.586487 581.831421,155.527374 582.786743,166.922440 
	C583.105652,170.725967 584.638611,174.627182 585.442261,178.538620 
	C586.273926,182.586105 584.356567,183.272766 581.049438,182.720673 
	C580.557678,182.638596 580.076233,182.494797 579.590088,182.379028 
	C558.057373,177.250885 536.517334,172.152664 515.001648,166.954010 
	C512.498474,166.349213 508.878357,166.441772 508.092255,163.847763 
	C507.344757,161.381149 510.711609,159.975601 512.346436,158.206619 
	C533.342468,135.487366 554.274475,112.706741 575.480896,90.184814 
	C584.947083,80.131409 594.422607,70.096153 603.747864,59.908142 
	C619.139221,43.092857 634.899841,26.615530 650.755981,9.744285 
z"/>
<path fill="var(--color-secondary)" opacity="1.000000" stroke="none" 
	d="
M860.598267,293.577911 
	C864.961670,288.756042 869.105225,284.208862 873.286926,279.697144 
	C875.564514,277.239868 876.750244,278.784119 877.471985,281.032349 
	C879.609558,287.690613 881.676636,294.371765 883.737183,301.054474 
	C887.603638,313.594482 891.465515,326.136017 895.294250,338.687622 
	C902.236938,361.447327 909.101257,384.231079 916.102173,406.972809 
	C920.015259,419.683899 924.222046,432.304504 928.141724,445.013641 
	C932.212585,458.212830 936.124512,471.461426 940.047607,484.705688 
	C941.442017,489.413239 940.514954,490.369354 935.500793,489.361328 
	C923.589050,486.966705 911.714600,484.380646 899.779358,482.112671 
	C896.357056,481.462372 894.449951,479.650238 893.415405,476.586273 
	C890.857788,469.010986 888.240173,461.453857 885.834595,453.830109 
	C884.511230,449.636139 885.462891,448.824829 889.992310,449.770996 
	C900.604065,451.987640 900.731934,451.949280 897.566833,441.401611 
	C886.996826,406.176178 876.329529,370.979858 865.683594,335.777191 
	C865.307617,334.533752 865.146912,332.961334 863.619263,332.595306 
	C861.875061,332.177368 860.954224,333.631226 859.949585,334.712372 
	C847.612671,347.989868 835.303345,361.292999 822.944519,374.550079 
	C808.542480,389.998932 794.149536,405.456879 779.633301,420.797974 
	C776.464844,424.146393 778.067688,425.149811 781.440430,425.825684 
	C785.192078,426.577484 788.921631,427.483002 792.703003,428.030182 
	C796.196106,428.535614 797.929199,430.499756 798.710266,433.762970 
	C800.257446,440.226959 801.984070,446.648468 803.490662,453.121521 
	C804.642883,458.072174 803.808350,458.894470 798.869995,457.714600 
	C775.559814,452.145355 752.267273,446.502258 728.955933,440.938141 
	C725.364624,440.080963 724.873779,438.725952 727.485901,435.980804 
	C738.607300,424.293152 749.813049,412.678864 760.675293,400.752960 
	C780.381836,379.116791 801.009583,358.337006 820.317993,336.330872 
	C825.799988,330.083008 831.666260,324.171478 837.380737,318.128754 
	C845.039551,310.029907 852.722046,301.953491 860.598267,293.577911 
z"/>
<path fill="var(--color-secondary)" opacity="1.000000" stroke="none" 
	d="
M864.805786,612.253052 
	C856.926453,586.743103 849.174377,561.612122 841.369873,536.497375 
	C831.487488,504.696136 821.562561,472.908112 811.655029,441.114685 
	C811.605469,440.955780 811.537537,440.802612 811.488220,440.643677 
	C808.520325,431.080750 808.483826,431.348083 818.109131,432.664185 
	C829.863831,434.271393 841.074402,438.213593 852.722229,440.204651 
	C855.510437,440.681213 857.065247,442.271393 857.847961,444.966705 
	C859.984802,452.325256 862.337402,459.621857 864.421387,466.994720 
	C865.579041,471.090302 864.495911,472.201385 860.167175,471.258606 
	C849.551575,468.946503 850.714233,470.282654 853.372131,478.939606 
	C862.462280,508.546936 871.324890,538.225342 880.052124,567.941895 
	C881.834778,574.011719 883.562683,580.092407 885.516907,586.111267 
	C886.609619,589.476746 887.725586,590.109436 890.451050,587.191345 
	C912.034668,564.082947 933.873047,541.210815 955.303589,517.962280 
	C960.385010,512.449768 965.636414,507.119568 970.803528,501.700562 
	C973.230530,499.155212 973.218445,497.456238 969.442017,496.619873 
	C967.328125,496.151733 965.255188,495.181396 963.138672,495.101166 
	C956.826721,494.861938 954.362000,491.013245 953.089050,485.515137 
	C951.736938,479.674896 949.960266,473.933624 948.574036,468.100433 
	C947.546997,463.779114 948.556213,462.720886 952.745667,463.739227 
	C976.038269,469.401001 999.297241,475.201508 1022.600647,480.818024 
	C1026.578247,481.776703 1025.162231,483.250244 1023.478149,485.070465 
	C1014.677185,494.582764 1005.885559,504.103729 997.073242,513.605530 
	C981.464172,530.435852 965.798950,547.214417 950.252258,564.102051 
	C945.405762,569.366394 940.335327,574.408508 935.516235,579.710815 
	C917.051331,600.027344 898.204224,619.997437 879.423035,640.024841 
	C875.050476,644.687439 874.498657,644.471191 872.684570,638.480225 
	C870.077698,629.871216 867.499939,621.253357 864.805786,612.253052 
z"/>
<path fill="var(--color-secondary)" opacity="1.000000" stroke="none" 
	d="
M978.372681,169.678436 
	C976.565796,163.888824 974.933228,158.464066 973.171997,153.081406 
	C972.101013,149.808258 973.145508,148.631607 976.459656,149.373825 
	C989.462830,152.285950 1002.463196,155.210190 1015.467773,158.115799 
	C1018.362366,158.762543 1020.099365,160.556244 1020.935913,163.350540 
	C1023.085632,170.531754 1025.346924,177.680969 1027.389526,184.892288 
	C1028.596191,189.152405 1027.300415,190.320419 1022.788940,189.432098 
	C1013.674072,187.637360 1013.672668,187.637772 1016.306396,196.460480 
	C1024.828979,225.010513 1033.357666,253.558731 1041.872314,282.111145 
	C1043.916382,288.965485 1045.917847,295.832581 1047.933838,302.695282 
	C1049.333130,307.459045 1050.635498,307.845795 1054.270874,304.199493 
	C1068.020508,290.408630 1081.033936,275.928101 1094.127075,261.521118 
	C1099.944580,255.119827 1105.948853,248.887512 1111.904541,242.612778 
	C1119.009277,235.127365 1126.157471,227.683411 1133.273804,220.208923 
	C1134.288452,219.143188 1135.840454,218.155060 1135.423950,216.497253 
	C1134.939453,214.568176 1132.927612,214.242767 1131.352051,214.193008 
	C1120.634033,213.854401 1115.745239,207.937881 1114.600220,197.725876 
	C1114.122192,193.463165 1112.571411,189.323059 1111.541016,185.119171 
	C1110.719604,181.767807 1112.164917,180.798111 1115.295654,181.591751 
	C1119.818481,182.738251 1124.347656,183.860367 1128.879150,184.972183 
	C1146.830078,189.376495 1164.786865,193.756943 1182.732910,198.181046 
	C1188.590820,199.625153 1188.921997,200.165955 1185.100464,204.714905 
	C1180.075073,210.697128 1174.837891,216.532776 1169.332397,222.074432 
	C1155.718872,235.777359 1142.954834,250.274307 1129.555298,264.183105 
	C1106.934082,287.664124 1085.012329,311.819580 1062.829224,335.721924 
	C1055.814331,343.280518 1048.975708,351.003540 1041.917480,358.520844 
	C1038.141113,362.542755 1037.536743,362.396851 1035.941528,357.225677 
	C1027.941528,331.291870 1020.078613,305.315704 1012.071228,279.384216 
	C1005.836243,259.192596 999.386597,239.067245 993.169006,218.870346 
	C988.170532,202.633316 983.377136,186.333176 978.372681,169.678436 
z"/>
<path fill="var(--color-secondary)" opacity="1.000000" stroke="none" 
	d="
M644.375488,329.675262 
	C635.074036,299.195587 625.979919,269.071777 616.683167,239.010590 
	C609.452209,215.629211 601.943420,192.333862 594.628845,168.978149 
	C593.686401,165.968994 593.135742,162.833954 592.464844,159.743942 
	C591.883606,157.066818 592.988037,155.859787 595.696533,156.462540 
	C608.860229,159.392029 622.019409,162.342239 635.168518,165.336517 
	C637.450134,165.856094 638.991394,167.403091 639.655762,169.633270 
	C641.937866,177.294083 644.170288,184.969879 646.382874,192.651138 
	C647.258667,195.691757 646.394714,196.964386 642.929749,196.528336 
	C632.720581,195.243546 632.883423,195.287857 635.829895,205.102615 
	C644.258057,233.177307 652.514832,261.303375 660.875122,289.398499 
	C663.059143,296.738129 665.358398,304.043701 667.637939,311.354584 
	C668.666565,314.653473 670.038696,315.414429 672.739380,312.460266 
	C683.956360,300.190491 695.293945,288.030548 706.636597,275.876312 
	C721.506775,259.942139 736.453247,244.079086 751.301941,228.125000 
	C755.764709,223.330109 755.398254,221.312881 748.825012,220.952637 
	C738.897766,220.408524 735.638428,214.613693 733.994324,206.254532 
	C733.064575,201.527161 731.633789,196.885040 730.207397,192.272949 
	C729.095642,188.678192 730.175537,187.562653 733.742249,188.457230 
	C744.239624,191.090042 754.737915,193.719406 765.247986,196.300980 
	C777.357178,199.275391 789.485352,202.172470 801.593140,205.152618 
	C807.517944,206.610901 807.978210,207.875595 803.794312,212.531281 
	C798.125000,218.839874 792.205322,224.923553 786.388367,231.099335 
	C769.961731,248.538971 753.484802,265.931488 737.117615,283.426758 
	C719.388550,302.377686 701.486938,321.179047 684.215942,340.541107 
	C676.675476,348.994598 668.027222,356.365662 661.032166,365.328979 
	C657.641602,369.673676 656.481934,369.273743 654.847595,363.972137 
	C651.365723,352.677094 647.942688,341.363861 644.375488,329.675262 
z"/>
<path fill="var(--color-secondary)" opacity="1.000000" stroke="none" 
	d="
M261.007965,323.041199 
	C255.119766,303.544312 249.419861,284.410309 243.446732,265.362030 
	C242.094009,261.048218 243.595184,260.718231 247.112915,261.516296 
	C259.766113,264.386841 272.430237,267.209808 285.097931,270.016022 
	C287.938965,270.645416 289.937378,272.145081 290.803619,274.985840 
	C292.987946,282.149017 295.304565,289.275818 297.298615,296.491669 
	C298.617828,301.265472 297.433380,302.359070 292.703705,301.408081 
	C284.043732,299.666901 283.847626,299.724548 286.236542,307.847473 
	C291.161560,324.593323 296.384949,341.251160 301.360748,357.982361 
	C306.862518,376.482178 312.266052,395.011566 317.624481,413.553467 
	C319.410309,419.732941 320.502777,420.232452 324.834808,415.617004 
	C342.698395,396.584686 360.419250,377.418488 378.256714,358.361572 
	C385.988464,350.101196 393.883453,341.993713 401.684967,333.798340 
	C403.154724,332.254364 405.550568,330.859833 405.131012,328.591431 
	C404.651520,325.998840 401.651215,326.186676 399.732300,326.037689 
	C390.350830,325.309418 386.100098,320.035675 384.902435,311.083008 
	C384.312561,306.673798 382.378082,302.460938 381.355621,298.088287 
	C380.406403,294.028717 381.716248,292.754456 385.768463,293.744843 
	C406.310730,298.765503 426.831055,303.875824 447.357635,308.960632 
	C448.003540,309.120636 448.627167,309.369202 449.271729,309.535675 
	C459.448303,312.164032 459.656189,312.361053 452.224365,320.128418 
	C443.022675,329.745575 434.119843,339.631042 425.045349,349.360138 
	C402.808136,373.201447 380.281311,396.772430 357.997101,420.570251 
	C342.650879,436.958832 327.511383,453.541077 312.289093,470.045593 
	C308.801270,473.827209 307.289581,473.572174 305.679382,468.396210 
	C301.082031,453.618347 296.675110,438.781372 292.151154,423.980499 
	C285.103577,400.923279 278.042694,377.870087 270.944153,354.828491 
	C267.715271,344.347626 264.382812,333.898621 261.007965,323.041199 
z"/>
<path fill="var(--color-secondary)" opacity="1.000000" stroke="none" 
	d="
M698.254150,590.783936 
	C700.120544,591.195923 701.600525,591.457703 703.037842,591.868896 
	C711.058411,594.163025 711.473145,594.839905 705.379028,600.918945 
	C694.645020,611.626465 684.712463,623.057007 674.362976,634.108582 
	C653.436340,656.454956 632.428284,678.724976 611.500366,701.070068 
	C598.309753,715.154053 585.192749,729.307068 572.068359,743.452881 
	C569.354614,746.377747 566.874634,749.526978 564.070374,752.358276 
	C560.750427,755.710083 559.275818,755.380615 557.877380,750.986084 
	C554.547668,740.522400 551.381897,730.006714 548.122131,719.520630 
	C541.698181,698.856018 535.180969,678.220032 528.841431,657.529602 
	C522.500061,636.832947 516.372742,616.070801 510.066315,595.363220 
	C505.995361,581.995911 501.761230,568.678284 497.624054,555.330994 
	C496.835449,552.786743 496.073853,550.228271 495.449677,547.640198 
	C494.542664,543.879395 495.969635,542.824829 499.722076,543.708191 
	C511.874268,546.568848 524.045776,549.364990 536.273376,551.876953 
	C539.992676,552.640930 542.181152,554.179993 543.191345,557.921753 
	C545.057434,564.833618 547.312927,571.639282 549.291687,578.522095 
	C550.621216,583.146545 549.405640,584.360474 544.677856,583.402039 
	C535.659729,581.573853 535.660461,581.573547 538.337280,590.568115 
	C548.883301,626.005981 559.431519,661.443237 569.971985,696.882751 
	C571.539246,702.152405 572.335449,702.381409 576.138428,698.366089 
	C593.760376,679.760498 611.475220,661.240845 628.916077,642.466919 
	C637.520691,633.204590 645.898743,623.733765 654.748474,614.695557 
	C658.719910,610.639465 658.289978,609.383057 652.834167,607.962463 
	C652.672974,607.920471 652.509338,607.854492 652.346985,607.855042 
	C642.234253,607.890137 638.374817,601.696838 636.871094,592.755676 
	C636.157227,588.510803 634.612732,584.410461 633.545837,580.218872 
	C632.175293,574.834412 632.570496,574.454285 638.204468,575.830078 
	C647.106873,578.003845 655.991821,580.249390 664.883118,582.468567 
	C675.871948,585.211243 686.859741,587.957825 698.254150,590.783936 
z"/>
<path fill="var(--color-secondary)" opacity="1.000000" stroke="none" 
	d="
M115.263046,416.057739 
	C106.715279,412.764526 102.318291,406.367004 100.398125,398.214478 
	C98.630516,390.709625 98.375839,383.107605 100.142738,375.476532 
	C102.665169,364.582336 110.683510,358.341309 121.831421,357.914917 
	C134.118668,357.444977 146.394653,356.679565 158.694382,357.035950 
	C165.993530,357.247437 173.299881,357.544312 180.575821,358.136536 
	C189.194809,358.838074 196.422775,365.405304 198.216675,375.906860 
	C199.974533,386.197418 200.450577,396.742004 194.811172,406.495239 
	C191.581985,412.080017 187.012772,415.953400 180.779999,416.636841 
	C162.245148,418.669159 143.636765,418.605347 125.041473,417.271271 
	C121.903160,417.046112 118.785713,416.530212 115.263046,416.057739 
z"/>
<path fill="var(--color-secondary)" opacity="1.000000" stroke="none" 
	d="
M1135.785156,396.248413 
	C1122.248657,382.245239 1124.433472,354.382080 1139.498413,344.992493 
	C1141.231323,343.912384 1143.008545,343.163177 1145.074585,343.027924 
	C1166.349365,341.634766 1187.624878,341.623596 1208.894653,343.057861 
	C1216.725708,343.585907 1225.130493,350.840698 1226.436646,359.914734 
	C1227.803223,369.409485 1228.017212,379.126190 1224.283203,388.476196 
	C1220.663452,397.540314 1213.695557,401.188873 1204.520508,401.991028 
	C1191.567017,403.123596 1178.588501,403.136810 1165.611816,402.939301 
	C1159.970703,402.853455 1154.328491,402.313690 1148.703979,401.794800 
	C1143.971924,401.358276 1139.592285,399.875244 1135.785156,396.248413 
z"/>
<path fill="var(--color-secondary)" opacity="1.000000" stroke="none" 
	d="
M511.998718,274.002625 
	C499.365723,273.655121 487.213776,274.692688 475.088135,273.080475 
	C468.485596,272.202606 463.097778,269.376282 460.018982,263.689453 
	C453.285828,251.252640 452.591797,238.019440 458.404755,225.220932 
	C461.436676,218.545395 467.560425,214.243332 475.535400,214.041641 
	C495.139862,213.545807 514.748657,213.514038 534.349976,214.067352 
	C544.745422,214.360779 552.941833,222.383469 554.676025,234.621582 
	C555.992004,243.907928 555.329590,253.228394 551.035645,261.910278 
	C547.724915,268.604309 542.194031,271.986176 534.911072,272.995605 
	C527.461304,274.028198 519.988281,274.097137 511.998718,274.002625 
z"/>
<path fill="var(--color-secondary)" opacity="1.000000" stroke="none" 
	d="
M699.479553,688.082153 
	C712.059326,687.907654 724.148743,686.493225 736.308594,686.968689 
	C744.608276,687.293213 752.879028,688.020752 761.198486,688.190918 
	C770.030090,688.371399 778.473267,696.473206 779.580078,706.496033 
	C780.571655,715.475769 780.937012,724.595154 777.193970,733.501831 
	C773.367920,742.605957 766.482422,746.067566 757.417542,746.990234 
	C743.647705,748.391846 729.825317,748.334290 716.047485,747.826904 
	C709.189514,747.574402 702.102478,748.074951 695.432007,745.451111 
	C687.393982,742.289246 683.056580,736.059753 681.363037,727.992432 
	C679.786072,720.480103 679.428101,712.872498 681.036194,705.212708 
	C682.773682,696.936279 689.749878,690.095459 699.479553,688.082153 
z"/>
<path fill="var(--color-secondary)" opacity="1.000000" stroke="none" 
	d="
M357.009644,93.003128 
	C351.361938,92.877235 346.235077,93.095123 341.077759,92.201759 
	C328.473541,90.018440 322.173004,83.685371 320.063019,71.018364 
	C318.953217,64.355789 319.128479,57.789177 320.110809,51.179291 
	C321.539642,41.564987 330.472290,33.245617 340.488831,33.108273 
	C359.813965,32.843288 379.147095,32.873730 398.473236,33.099003 
	C407.506989,33.204304 415.228546,39.300018 417.672485,48.000431 
	C420.004791,56.303333 420.016724,64.981094 418.201935,73.242439 
	C415.186951,86.967484 406.659943,92.771675 390.999603,92.968071 
	C379.837158,93.108070 368.671631,93.000320 357.009644,93.003128 
z"/>
<path fill="var(--color-secondary)" opacity="1.000000" stroke="none" 
	d="
M840.230896,205.956818 
	C842.723145,204.852783 844.920593,204.143433 847.293579,204.026855 
	C867.383057,203.039795 887.474182,203.357269 907.559448,204.062653 
	C915.888550,204.355148 924.273438,211.002426 925.935547,219.212570 
	C927.826233,228.551697 928.052673,238.069565 925.323364,247.356186 
	C922.518311,256.900635 915.640259,262.182861 905.634277,263.024902 
	C887.043579,264.589355 868.436646,264.738495 849.865784,263.053253 
	C836.861084,261.873138 828.756592,252.937241 828.070679,239.604416 
	C827.814514,234.624512 827.801575,229.608688 828.070435,224.630463 
	C828.519104,216.322067 832.831665,210.307587 840.230896,205.956818 
z"/>
<path fill="var(--color-secondary)" opacity="1.000000" stroke="none" 
	d="
M349.267670,610.325378 
	C353.775665,604.914124 359.493530,603.048889 365.911102,603.028992 
	C383.882538,602.973328 401.854706,602.931763 419.825745,603.031006 
	C432.911285,603.103271 442.910339,613.047363 442.938141,626.118835 
	C442.950470,631.904602 443.850616,637.772278 442.182709,643.487244 
	C438.811493,655.038086 431.756195,662.353516 419.144592,662.642090 
	C400.702179,663.064148 382.248260,663.772095 363.819183,662.232544 
	C356.024780,661.581360 350.145721,657.773438 347.152832,650.559570 
	C341.540649,637.032288 340.443787,623.541809 349.267670,610.325378 
z"/>
<path fill="var(--color-secondary)" opacity="1.000000" stroke="none" 
	d="
M1222.000000,47.995552 
	C1234.285034,48.428127 1246.110474,47.076740 1257.867310,48.956123 
	C1266.722778,50.371696 1274.668945,57.700531 1275.697998,66.549873 
	C1276.463745,73.135033 1276.626221,79.878967 1275.550293,86.458344 
	C1273.351807,99.901199 1268.147949,105.810860 1254.610107,107.155624 
	C1235.419067,109.061958 1216.073975,108.589760 1196.829102,107.329803 
	C1187.467651,106.716904 1181.318970,101.075294 1178.633301,92.026558 
	C1175.992310,83.127937 1175.095947,74.110474 1177.548218,64.990158 
	C1180.557495,53.796871 1188.103760,48.500092 1202.032227,48.056114 
	C1208.515503,47.849453 1215.010376,48.004581 1222.000000,47.995552 
z"/>
<path fill="var(--color-primary)" opacity="1.000000" stroke="none" 
	d="
M61.788364,742.393311 
	C65.456856,749.054077 64.505157,754.195557 59.305332,757.434143 
	C54.081665,760.687561 48.722904,759.430176 45.068813,754.093689 
	C42.201756,749.906616 42.864712,744.231018 46.592045,741.052795 
	C51.577686,736.801636 56.282150,737.131470 61.788364,742.393311 
z"/>
<path fill="var(--color-primary)" opacity="1.000000" stroke="none" 
	d="
M134.817596,385.629211 
	C135.133179,394.027313 132.388626,398.186981 126.379349,398.923859 
	C120.782471,399.610168 115.641563,395.992035 114.507057,390.568176 
	C113.514587,385.823334 116.706146,380.140717 121.268784,378.528870 
	C127.094681,376.470673 131.981079,378.897858 134.817596,385.629211 
z"/>
<path fill="var(--color-primary)" opacity="1.000000" stroke="none" 
	d="
M180.766693,394.609924 
	C177.250366,398.114441 173.513290,400.352997 168.918182,398.242584 
	C165.424774,396.638184 162.237244,394.243011 162.077332,389.827820 
	C161.913971,385.317047 162.737717,381.142120 167.504028,379.060394 
	C172.387756,376.927277 176.651382,377.806335 180.094330,381.624298 
	C183.692886,385.614838 184.016373,389.850128 180.766693,394.609924 
z"/>
<path fill="var(--color-primary)" opacity="1.000000" stroke="none" 
	d="
M1191.743286,379.003906 
	C1189.037476,374.080536 1189.290283,369.686249 1193.019287,365.913757 
	C1196.594604,362.296570 1201.146851,361.995422 1205.465698,363.961945 
	C1209.594238,365.841736 1211.490112,369.649719 1210.887939,374.219421 
	C1210.360229,378.224274 1208.250488,381.357361 1204.327759,382.867004 
	C1199.362183,384.777985 1195.239136,383.461609 1191.743286,379.003906 
z"/>
<path fill="var(--color-primary)" opacity="1.000000" stroke="none" 
	d="
M1151.342041,363.030090 
	C1157.867920,363.087250 1161.951294,365.664490 1162.861572,370.021240 
	C1164.006836,375.503387 1162.035522,380.437592 1157.894409,382.454224 
	C1152.034180,385.308014 1145.512695,382.962006 1143.469238,377.264984 
	C1141.078857,370.600800 1143.997925,365.034058 1151.342041,363.030090 
z"/>
<path fill="var(--color-primary)" opacity="1.000000" stroke="none" 
	d="
M486.182617,235.628876 
	C491.764954,240.978012 492.518555,247.948318 488.285492,252.116714 
	C483.957245,256.378754 476.933594,255.756744 472.325439,250.844681 
	C469.233337,247.548599 469.280792,243.807831 471.093811,240.223846 
	C473.069580,236.318146 476.331604,233.685516 481.091278,234.108505 
	C482.701813,234.251633 484.260162,234.981918 486.182617,235.628876 
z"/>
<path fill="var(--color-primary)" opacity="1.000000" stroke="none" 
	d="
M518.182495,247.377625 
	C517.854004,238.488708 521.975952,233.556671 528.861084,234.117126 
	C534.110901,234.544449 537.541199,237.896271 537.962158,243.009903 
	C538.478577,249.284088 536.112854,253.087341 530.805176,254.515472 
	C524.941345,256.093231 520.968689,253.961929 518.182495,247.377625 
z"/>
<path fill="var(--color-primary)" opacity="1.000000" stroke="none" 
	d="
M745.541626,725.345337 
	C741.896851,719.859436 742.085754,714.611755 745.771912,711.057861 
	C749.524475,707.439941 755.376099,706.862976 759.492249,709.705261 
	C763.371399,712.383911 764.904419,718.195557 762.896912,722.612976 
	C759.842651,729.333679 753.353943,730.474365 745.541626,725.345337 
z"/>
<path fill="var(--color-primary)" opacity="1.000000" stroke="none" 
	d="
M706.788940,728.885986 
	C699.166565,727.885315 694.711609,723.216003 695.276917,717.261169 
	C695.819641,711.544617 700.696350,707.663757 706.868652,708.036621 
	C711.586243,708.321655 715.423645,711.600281 715.940979,715.787903 
	C716.749573,722.333923 713.850830,726.656677 706.788940,728.885986 
z"/>
<path fill="var(--color-primary)" opacity="1.000000" stroke="none" 
	d="
M343.457367,53.213623 
	C349.038239,53.009609 352.793457,55.176754 354.971069,59.984779 
	C356.700226,63.802593 355.732819,67.151878 353.231903,70.185074 
	C350.250519,73.800972 346.411194,74.701057 341.973206,73.449959 
	C338.047058,72.343170 335.582642,69.847740 335.131866,65.765236 
	C334.680542,61.677570 334.774536,57.648186 339.080322,55.303177 
	C340.388672,54.590622 341.738708,53.954556 343.457367,53.213623 
z"/>
<path fill="var(--color-primary)" opacity="1.000000" stroke="none" 
	d="
M382.095703,64.705666 
	C382.069550,59.032219 384.744598,55.345314 389.464813,53.560623 
	C393.573029,52.007313 397.304626,53.322300 400.155457,56.817242 
	C404.207306,61.784615 403.633728,67.686974 398.662323,71.743866 
	C394.234833,75.356888 388.546539,74.629875 384.505188,69.959717 
	C383.278595,68.542259 382.392792,66.979942 382.095703,64.705666 
z"/>
<path fill="var(--color-primary)" opacity="1.000000" stroke="none" 
	d="
M856.135376,244.575500 
	C850.706299,245.929550 846.723755,243.875641 844.203796,239.830490 
	C842.106750,236.464203 842.401733,232.537216 844.419373,228.893417 
	C846.784485,224.621964 850.551636,223.451950 855.011841,224.162460 
	C859.348328,224.853226 862.303223,227.649200 863.509827,231.698624 
	C864.747620,235.852631 863.385742,239.593811 859.891724,242.337967 
	C858.853516,243.153397 857.643066,243.749573 856.135376,244.575500 
z"/>
<path fill="var(--color-primary)" opacity="1.000000" stroke="none" 
	d="
M892.241699,228.392471 
	C897.778503,223.063293 904.344360,222.581726 908.201904,226.944244 
	C912.515564,231.822601 911.907898,238.053680 906.736023,242.759094 
	C903.258667,245.922775 899.386108,245.719406 895.716064,243.636246 
	C891.669434,241.339310 889.550659,237.641907 890.375061,232.812592 
	C890.618469,231.386475 891.444641,230.059845 892.241699,228.392471 
z"/>
<path fill="var(--color-primary)" opacity="1.000000" stroke="none" 
	d="
M378.276245,629.152649 
	C379.842407,634.590881 379.068176,639.229736 374.647034,642.387634 
	C371.142090,644.891174 367.055054,644.753113 363.397156,642.476624 
	C359.783539,640.227905 357.588165,636.797791 358.306274,632.450806 
	C359.096558,627.667053 362.068024,624.154846 366.910278,623.253967 
	C371.736328,622.356201 375.649628,624.363953 378.276245,629.152649 
z"/>
<path fill="var(--color-primary)" opacity="1.000000" stroke="none" 
	d="
M422.605194,641.786133 
	C416.829926,644.983643 411.907104,644.611572 408.752838,641.007935 
	C405.577301,637.379944 404.996582,631.756165 407.424500,628.143005 
	C411.226654,622.484741 417.621735,621.461975 422.896301,625.668640 
	C428.119965,629.834717 428.120422,636.010559 422.605194,641.786133 
z"/>
<path fill="var(--color-primary)" opacity="1.000000" stroke="none" 
	d="
M1253.849243,88.276749 
	C1244.570557,91.562447 1237.524536,83.294746 1239.218506,76.869827 
	C1240.527954,71.903450 1243.366699,69.085167 1248.269775,68.263977 
	C1252.452515,67.563416 1257.401611,70.380814 1259.131958,74.533310 
	C1260.985718,78.982040 1259.835083,82.971710 1256.644409,86.410561 
	C1255.986938,87.119095 1255.025757,87.545792 1253.849243,88.276749 
z"/>
<path fill="var(--color-primary)" opacity="1.000000" stroke="none" 
	d="
M1210.258423,85.188553 
	C1205.279541,89.909660 1199.064331,90.286362 1194.962891,86.382591 
	C1191.537598,83.122391 1190.960815,75.846619 1193.835327,72.158371 
	C1197.172607,67.876389 1203.850098,67.106468 1208.608154,70.454956 
	C1213.308350,73.762756 1213.980225,78.853409 1210.258423,85.188553 
z"/>
</svg>